<?xml version="1.0" encoding="UTF-8"?>
<svg id="Layer_1" data-name="Layer 1" xmlns="http://www.w3.org/2000/svg" viewBox="0 0 80 80">
  <defs>
    <style>
      .cls-1, .cls-2 {
        fill: #fff;
      }

      .cls-2 {
        isolation: isolate;
        opacity: .3;
      }
    </style>
  </defs>
  <path class="cls-2" d="M80,40c0,22.09-17.91,40-40,40S0,62.09,0,40,17.91,0,40,0s40,17.91,40,40Zm-69.09,0c0,16.07,13.03,29.09,29.09,29.09s29.09-13.03,29.09-29.09-13.03-29.09-29.09-29.09S10.91,23.93,10.91,40Z"/>
  <circle class="cls-1" cx="40" cy="40" r="29"/>
  <path d="M31.67,31.67v-3.33c0-.97,.28-1.91,.8-2.72,.53-.81,1.27-1.45,2.15-1.84,.88-.39,1.86-.52,2.81-.38,.95,.15,1.84,.57,2.56,1.21,.72-.64,1.61-1.06,2.56-1.21,.95-.15,1.93-.02,2.81,.38,.88,.39,1.63,1.03,2.15,1.84,.53,.81,.8,1.75,.8,2.72v3.33h2.5c.66,0,1.3,.26,1.77,.73,.47,.47,.73,1.1,.73,1.77v16.68c0,1.54-.61,3.03-1.71,4.12-1.09,1.09-2.57,1.71-4.12,1.71h-14.18c-1.77,0-3.46-.7-4.71-1.95-1.25-1.25-1.95-2.95-1.95-4.71v-15.83c0-.66,.26-1.3,.73-1.77,.47-.47,1.1-.73,1.77-.73h2.5Zm11.06,22.5c-.68-.98-1.04-2.14-1.04-3.32v-16.68h-12.52v15.83c0,.55,.11,1.09,.32,1.59,.21,.51,.52,.96,.9,1.35,.39,.39,.85,.69,1.35,.9,.51,.21,1.05,.32,1.59,.32h9.39Zm-3.56-22.5v-3.33c0-.66-.26-1.3-.73-1.77-.47-.47-1.1-.73-1.77-.73s-1.3,.26-1.77,.73c-.47,.47-.73,1.1-.73,1.77v3.33h5Zm2.5,0h4.17v-3.33c0-.51-.16-1.02-.45-1.44-.3-.42-.71-.74-1.2-.91-.48-.17-1.01-.19-1.51-.06-.5,.14-.94,.42-1.27,.82,.17,.5,.26,1.04,.26,1.59v3.33Zm2.52,19.18c0,.88,.35,1.73,.97,2.35,.62,.62,1.47,.97,2.35,.97s1.73-.35,2.35-.97c.62-.62,.97-1.47,.97-2.35v-16.68h-6.65v16.68Z"/>
</svg>