<?xml version="1.0" encoding="UTF-8"?>
<svg id="Layer_1" data-name="Layer 1" xmlns="http://www.w3.org/2000/svg" viewBox="0 0 80 80">
  <defs>
    <style>
      .cls-1 {
        stroke-miterlimit: 16;
      }

      .cls-1, .cls-2 {
        fill: none;
        stroke: #000;
        stroke-width: 2px;
      }

      .cls-3, .cls-4 {
        fill: #fff;
      }

      .cls-4 {
        isolation: isolate;
        opacity: .3;
      }
    </style>
  </defs>
  <path class="cls-4" d="M80,40c0,22.09-17.91,40-40,40S0,62.09,0,40,17.91,0,40,0s40,17.91,40,40Zm-69.09,0c0,16.07,13.03,29.09,29.09,29.09s29.09-13.03,29.09-29.09-13.03-29.09-29.09-29.09S10.91,23.93,10.91,40Z"/>
  <circle class="cls-3" cx="40" cy="40" r="29"/>
  <path class="cls-2" d="M54.14,25h-6.65l.83,8.33s1.67,1.67,4.17,1.67c1.31,0,2.58-.48,3.56-1.34,.1-.1,.18-.22,.23-.36,.04-.14,.05-.28,.02-.42l-1.18-7.05c-.04-.23-.16-.44-.34-.6-.18-.15-.41-.24-.64-.24h0Z"/>
  <path class="cls-2" d="M47.49,25l.83,8.33s-1.67,1.67-4.17,1.67-4.17-1.67-4.17-1.67v-8.33h7.5Z"/>
  <path class="cls-2" d="M39.99,25v8.33s-1.67,1.67-4.17,1.67-4.17-1.67-4.17-1.67l.83-8.33h7.5Z"/>
  <path class="cls-2" d="M32.49,25h-6.65c-.24,0-.47,.08-.65,.24-.18,.15-.3,.36-.34,.6l-1.17,7.05c-.03,.14-.02,.28,.02,.42,.04,.14,.12,.26,.23,.36,.55,.48,1.77,1.34,3.56,1.34,2.5,0,4.17-1.67,4.17-1.67l.83-8.33h0Z"/>
  <path class="cls-2" d="M25,35v16.67c0,.88,.35,1.73,.98,2.36,.63,.63,1.47,.98,2.36,.98h23.33c.88,0,1.73-.35,2.36-.98s.98-1.47,.98-2.36v-16.67"/>
  <path class="cls-1" d="M44.72,55v-10c0-.88-.35-1.73-.98-2.36-.63-.63-1.47-.98-2.36-.98h-3.33c-.88,0-1.73,.35-2.36,.98-.63,.63-.98,1.47-.98,2.36v10"/>
</svg>