<?xml version="1.0" encoding="UTF-8"?>
<svg id="Layer_1" data-name="Layer 1" xmlns="http://www.w3.org/2000/svg" viewBox="0 0 80 80">
  <defs>
    <style>
      .cls-1, .cls-2 {
        fill: #fff;
      }

      .cls-2 {
        isolation: isolate;
        opacity: .3;
      }

      .cls-3 {
        stroke: #000;
      }

      .cls-4 {
        fill: #fafafa;
        stroke: #fafafa;
      }
    </style>
  </defs>
  <path class="cls-2" d="M80,40c0,22.09-17.91,40-40,40S0,62.09,0,40,17.91,0,40,0s40,17.91,40,40Zm-69.09,0c0,16.07,13.03,29.09,29.09,29.09s29.09-13.03,29.09-29.09-13.03-29.09-29.09-29.09S10.91,23.93,10.91,40Z"/>
  <circle class="cls-1" cx="40" cy="40" r="29"/>
  <path class="cls-4" d="M40.43,38.15v.5h.5c.66,0,1.31,.21,1.85,.59,.54,.38,.95,.92,1.17,1.55,.02,.05,.03,.11,.02,.17,0,.06-.02,.11-.04,.16-.02,.05-.06,.1-.1,.13-.04,.04-.09,.07-.14,.09-.05,.02-.11,.03-.16,.02-.06,0-.11-.02-.16-.04-.1-.05-.18-.14-.22-.24h0c-.16-.46-.46-.86-.86-1.14-.4-.28-.87-.43-1.36-.43h-.5v4.71h.5c.85,0,1.67,.34,2.27,.94,.6,.6,.94,1.42,.94,2.27s-.34,1.67-.94,2.27c-.6,.6-1.42,.94-2.27,.94h-.5v.93h-.85v-.93h-.5c-.66,0-1.31-.21-1.85-.59-.54-.38-.95-.92-1.17-1.55h0s0-.01,0-.01c-.02-.05-.03-.11-.03-.17,0-.06,.02-.11,.04-.17,.02-.05,.06-.1,.1-.14l-.34-.37,.34,.37s.09-.07,.15-.09c.05-.02,.11-.03,.17-.02,.06,0,.11,.02,.16,.04,.05,.03,.1,.06,.13,.1s.07,.09,.08,.15h0s0,.01,0,.01c.32,.91,1.2,1.57,2.22,1.57h.5v-4.71h-.5c-.85,0-1.67-.34-2.27-.94-.6-.6-.94-1.42-.94-2.27s.34-1.67,.94-2.27c.6-.6,1.42-.94,2.27-.94h.5v-.93h.85v.43Zm-.85,1.85v-.5h-.5c-.62,0-1.22,.25-1.66,.69-.44,.44-.69,1.04-.69,1.66s.25,1.22,.69,1.66c.44,.44,1.04,.69,1.66,.69h.5v-4.21Zm.85,9.27v.5h.5c.62,0,1.22-.25,1.66-.69,.44-.44,.69-1.04,.69-1.66s-.25-1.22-.69-1.66c-.44-.44-1.04-.69-1.66-.69h-.5v4.21Z"/>
  <path class="cls-3" d="M32.71,32.58l.32,.12c4.35,1.68,9.59,1.68,13.94,0l.31-.12,.23,.24c1.9,2,3.49,4.27,4.71,6.75h0c1.28,2.6,1.99,5.25,1.88,7.56h0c-.11,2.26-1.02,4.23-3.06,5.68h0c-2.11,1.49-5.58,2.53-10.99,2.53s-8.9-1.02-11.02-2.49h0c-2.06-1.43-2.98-3.37-3.1-5.6l6.8-14.66Zm0,0l-.23,.25m.23-.25l-.23,.25m0,0c-1.82,1.96-3.51,4.36-4.72,6.87h0m4.72-6.87l-4.72,6.87m0,0c-1.27,2.62-1.97,5.25-1.84,7.54l1.84-7.54Zm22.09-13.51c.44,.22,.82,.43,1.13,.61l-3.13,4.58-.23,.34,.29,.29c1.94,1.98,3.77,4.51,5.08,7.19,1.31,2.68,2.09,5.47,1.96,7.98-.13,2.49-1.14,4.71-3.42,6.33-2.31,1.63-5.98,2.68-11.48,2.68s-9.18-1.03-11.51-2.64c-2.3-1.6-3.33-3.79-3.47-6.26-.14-2.49,.62-5.27,1.93-7.97,1.31-2.69,3.14-5.26,5.1-7.32l.28-.29-.23-.33-3.11-4.58c.16-.09,.33-.19,.52-.29h0c.19-.1,.4-.21,.62-.32l.2-.1c2.25-1.07,5.81-2.29,9.68-2.29s7.46,1.23,9.68,2.31h0s.12,.06,.12,.06c0,0,0,0,0,0Zm-3.62,5.88l.15-.05,.09-.13,2.74-4.01,.59-.86-1.03,.07c-2.59,.19-5.66,.79-8.61,1.65-1.98,.57-4.22,.49-6.32,.1-.53-.1-1.05-.22-1.58-.35l-1.29-.33,.75,1.1,1.78,2.62,.09,.14,.15,.05c3.92,1.4,8.55,1.4,12.48,0Zm-14.64-5.58l-1.28,.54,1.33,.4c.76,.23,1.55,.42,2.35,.57h0c2.03,.37,4.12,.44,5.93-.08h0c1.97-.57,3.97-1.02,5.99-1.35l.06-.97c-1.74-.52-3.79-.92-5.94-.92-3.28,0-6.33,.91-8.46,1.82Z"/>
</svg>