<?xml version="1.0" encoding="utf-8"?>
<!-- Generator: Adobe Illustrator 26.4.1, SVG Export Plug-In . SVG Version: 6.00 Build 0)  -->
<svg version="1.1" id="Layer_1" xmlns="http://www.w3.org/2000/svg" xmlns:xlink="http://www.w3.org/1999/xlink" x="0px" y="0px"
	 viewBox="0 0 170 145" style="enable-background:new 0 0 170 145;" xml:space="preserve">
<style type="text/css">
	.st0{fill:#FFFFFF;}
	.st1{fill:none;stroke:#000000;stroke-width:2;stroke-linecap:round;stroke-linejoin:round;}
	.st2{fill:none;stroke:#000000;stroke-opacity:0.3;}
</style>
<g>
	<path class="st0" d="M4,0h162c2.2,0,4,1.8,4,4v137c0,2.2-1.8,4-4,4H4c-2.2,0-4-1.8-4-4V4C0,1.8,1.8,0,4,0z"/>
	<path d="M51.7,109.4c0-1.1,0.2-2.1,0.7-2.9c0.5-0.9,1.2-1.6,2-2c0.9-0.5,1.8-0.7,2.8-0.7c1.2,0,2.3,0.3,3.2,0.9s1.6,1.4,2,2.5h-1.7
		c-0.3-0.7-0.8-1.2-1.3-1.6c-0.6-0.4-1.3-0.5-2.1-0.5c-0.8,0-1.5,0.2-2.1,0.5c-0.6,0.4-1.1,0.9-1.5,1.6s-0.5,1.4-0.5,2.3
		s0.2,1.7,0.5,2.3c0.4,0.7,0.8,1.2,1.5,1.5c0.6,0.4,1.3,0.5,2.1,0.5c0.8,0,1.5-0.2,2.1-0.5c0.6-0.4,1-0.9,1.3-1.6h1.7
		c-0.4,1.1-1.1,1.9-2,2.5s-2,0.9-3.2,0.9c-1,0-2-0.2-2.8-0.7s-1.5-1.2-2-2C51.9,111.5,51.7,110.5,51.7,109.4z M64,110.6
		c0-0.9,0.2-1.7,0.5-2.4c0.4-0.7,0.9-1.2,1.5-1.6s1.3-0.6,2.1-0.6c0.8,0,1.4,0.2,2,0.5s1,0.7,1.3,1.2v-1.6h1.5v8.8h-1.5v-1.6
		c-0.3,0.5-0.7,0.9-1.3,1.3c-0.6,0.3-1.2,0.5-2,0.5s-1.5-0.2-2.1-0.6s-1.1-0.9-1.5-1.6C64.2,112.3,64,111.5,64,110.6z M71.5,110.6
		c0-0.7-0.1-1.2-0.4-1.7s-0.6-0.9-1.1-1.1c-0.4-0.3-0.9-0.4-1.5-0.4s-1,0.1-1.5,0.4s-0.8,0.6-1.1,1.1c-0.3,0.5-0.4,1.1-0.4,1.7
		c0,0.7,0.1,1.3,0.4,1.8s0.6,0.9,1.1,1.1c0.4,0.3,0.9,0.4,1.5,0.4s1-0.1,1.5-0.4s0.8-0.6,1.1-1.1C71.3,111.8,71.5,111.3,71.5,110.6z
		 M85.9,106.1c0.7,0,1.3,0.1,1.8,0.4s1,0.7,1.3,1.3c0.3,0.6,0.5,1.3,0.5,2.1v5.2h-1.4v-5c0-0.9-0.2-1.5-0.7-2
		c-0.4-0.5-1-0.7-1.7-0.7c-0.8,0-1.4,0.2-1.8,0.7s-0.7,1.2-0.7,2.1v4.8h-1.4v-5c0-0.9-0.2-1.5-0.7-2c-0.4-0.5-1-0.7-1.7-0.7
		c-0.8,0-1.4,0.2-1.8,0.7s-0.7,1.2-0.7,2.1v4.8h-1.5v-8.8h1.5v1.3c0.3-0.5,0.7-0.8,1.2-1.1c0.5-0.2,1-0.4,1.6-0.4
		c0.7,0,1.4,0.2,2,0.5s1,0.8,1.3,1.5c0.2-0.6,0.7-1.1,1.2-1.4C84.6,106.2,85.3,106.1,85.9,106.1z M99.9,110.3c0,0.3,0,0.6,0,0.9h-7
		c0.1,0.9,0.3,1.5,0.9,2c0.5,0.5,1.2,0.7,2,0.7c0.6,0,1.2-0.1,1.6-0.4s0.7-0.7,0.9-1.2h1.6c-0.2,0.8-0.7,1.5-1.4,2.1
		c-0.7,0.5-1.6,0.8-2.6,0.8c-0.8,0-1.6-0.2-2.2-0.6c-0.7-0.4-1.2-0.9-1.5-1.6c-0.4-0.7-0.6-1.5-0.6-2.4s0.2-1.7,0.5-2.4
		c0.4-0.7,0.9-1.2,1.5-1.6c0.7-0.4,1.4-0.6,2.3-0.6c0.8,0,1.6,0.2,2.2,0.5c0.6,0.4,1.1,0.9,1.5,1.5
		C99.7,108.8,99.9,109.5,99.9,110.3z M98.4,110c0-0.6-0.1-1-0.4-1.4c-0.2-0.4-0.6-0.7-1-0.9c-0.4-0.2-0.9-0.3-1.4-0.3
		c-0.7,0-1.4,0.2-1.9,0.7s-0.8,1.1-0.9,2L98.4,110L98.4,110z M103.3,107.7c0.3-0.5,0.6-0.9,1.1-1.2c0.5-0.3,1.1-0.4,1.7-0.4v1.5
		h-0.4c-1.6,0-2.4,0.9-2.4,2.7v4.8h-1.5v-8.8h1.5C103.3,106.3,103.3,107.7,103.3,107.7z M107.2,110.6c0-0.9,0.2-1.7,0.5-2.4
		c0.4-0.7,0.9-1.2,1.5-1.6s1.3-0.6,2.1-0.6c0.8,0,1.4,0.2,2,0.5s1,0.7,1.3,1.2v-1.6h1.5v8.8h-1.5v-1.6c-0.3,0.5-0.7,0.9-1.3,1.3
		c-0.6,0.3-1.2,0.5-2,0.5s-1.5-0.2-2.1-0.6s-1.1-0.9-1.5-1.6C107.4,112.3,107.2,111.5,107.2,110.6z M114.7,110.6
		c0-0.7-0.1-1.2-0.4-1.7s-0.6-0.9-1.1-1.1c-0.4-0.3-0.9-0.4-1.5-0.4s-1,0.1-1.5,0.4s-0.8,0.6-1.1,1.1c-0.3,0.5-0.4,1.1-0.4,1.7
		c0,0.7,0.1,1.3,0.4,1.8s0.6,0.9,1.1,1.1c0.4,0.3,0.9,0.4,1.5,0.4s1-0.1,1.5-0.4s0.8-0.6,1.1-1.1
		C114.5,111.8,114.7,111.3,114.7,110.6z"/>
	<g>
		<g>
			<path class="st1" d="M68.7,41.3H71c1.2,0,2.4-0.5,3.3-1.4s1.4-2.1,1.4-3.3c0-0.6,0.2-1.2,0.7-1.6s1-0.7,1.6-0.7h14
				c0.6,0,1.2,0.2,1.7,0.7c0.4,0.4,0.7,1,0.7,1.6c0,1.2,0.5,2.4,1.4,3.3c0.9,0.9,2.1,1.4,3.3,1.4h2.3c1.2,0,2.4,0.5,3.3,1.4
				s1.4,2.1,1.4,3.3v21c0,1.2-0.5,2.4-1.4,3.3s-2.1,1.4-3.3,1.4H68.7c-1.2,0-2.4-0.5-3.3-1.4C64.5,69.4,64,68.2,64,67V46
				c0-1.2,0.5-2.4,1.4-3.3C66.2,41.8,67.4,41.3,68.7,41.3"/>
			<path class="st1" d="M85,62.3c3.9,0,7-3.1,7-7s-3.1-7-7-7s-7,3.1-7,7C78,59.2,81.1,62.3,85,62.3z"/>
		</g>
	</g>
</g>
<path class="st2" d="M4,0.5h162c1.9,0,3.5,1.6,3.5,3.5v137c0,1.9-1.6,3.5-3.5,3.5H4c-1.9,0-3.5-1.6-3.5-3.5V4C0.5,2.1,2.1,0.5,4,0.5
	z"/>
</svg>
