<?xml version="1.0" encoding="utf-8"?>
<!-- Generator: Adobe Illustrator 26.4.1, SVG Export Plug-In . SVG Version: 6.00 Build 0)  -->
<svg version="1.1" id="Layer_1" xmlns="http://www.w3.org/2000/svg" xmlns:xlink="http://www.w3.org/1999/xlink" x="0px" y="0px"
	 viewBox="0 0 170 145" style="enable-background:new 0 0 170 145;" xml:space="preserve">
<style type="text/css">
	.st0{fill:none;stroke:#000000;stroke-opacity:0.3;}
	.st1{clip-path:url(#SVGID_00000129178545493864271510000010479323397432742821_);}
	.st2{fill:none;stroke:#000000;stroke-width:2;stroke-linecap:round;stroke-linejoin:round;}
	.st3{fill:none;stroke:#000000;stroke-width:3;stroke-linecap:round;stroke-linejoin:round;}
	.st4{fill:none;stroke:#000000;stroke-width:2.5;stroke-linecap:round;stroke-linejoin:round;}
	.st5{fill:none;stroke:#000000;stroke-width:2;}
</style>
<path class="st0" d="M4,0.5h162c1.9,0,3.5,1.6,3.5,3.5v137c0,1.9-1.6,3.5-3.5,3.5H4c-1.9,0-3.5-1.6-3.5-3.5V4C0.5,2.1,2.1,0.5,4,0.5
	z"/>
<path d="M63.7,107.1c0,0.9-0.3,1.7-1,2.3c-0.6,0.6-1.6,0.9-2.9,0.9h-2.1v4.7h-1.5v-11.2h3.6c1.3,0,2.2,0.3,2.9,0.9
	C63.4,105.4,63.7,106.2,63.7,107.1z M59.8,109.1c0.8,0,1.4-0.2,1.8-0.5c0.4-0.4,0.6-0.9,0.6-1.5c0-1.4-0.8-2.1-2.4-2.1h-2.1v4.1
	H59.8z M69.8,106.1c0.7,0,1.3,0.1,1.8,0.4c0.5,0.3,0.9,0.7,1.2,1.3c0.3,0.6,0.5,1.3,0.5,2.1v5.2h-1.4v-5c0-0.9-0.2-1.5-0.7-2
	c-0.4-0.5-1-0.7-1.8-0.7c-0.8,0-1.4,0.2-1.8,0.7c-0.4,0.5-0.7,1.2-0.7,2.1v4.8h-1.5v-11.8H67v4.3c0.3-0.4,0.7-0.8,1.2-1
	C68.6,106.2,69.2,106.1,69.8,106.1z M79.6,115.1c-0.8,0-1.6-0.2-2.2-0.6c-0.7-0.4-1.2-0.9-1.6-1.6c-0.4-0.7-0.6-1.5-0.6-2.4
	c0-0.9,0.2-1.7,0.6-2.4c0.4-0.7,0.9-1.2,1.6-1.6c0.7-0.4,1.4-0.6,2.3-0.6s1.6,0.2,2.3,0.6c0.7,0.4,1.2,0.9,1.6,1.6
	c0.4,0.7,0.6,1.5,0.6,2.4c0,0.9-0.2,1.7-0.6,2.4c-0.4,0.7-0.9,1.2-1.6,1.6C81.1,115,80.4,115.1,79.6,115.1z M79.6,113.9
	c0.5,0,1-0.1,1.5-0.4c0.5-0.2,0.8-0.6,1.1-1.1c0.3-0.5,0.4-1.1,0.4-1.8c0-0.7-0.1-1.3-0.4-1.8c-0.3-0.5-0.6-0.9-1.1-1.1
	c-0.4-0.2-0.9-0.4-1.5-0.4c-0.5,0-1,0.1-1.5,0.4c-0.4,0.2-0.8,0.6-1.1,1.1c-0.3,0.5-0.4,1.1-0.4,1.8c0,0.7,0.1,1.3,0.4,1.8
	c0.3,0.5,0.6,0.9,1.1,1.1C78.6,113.7,79,113.9,79.6,113.9z M90.2,106.1c1.1,0,1.9,0.3,2.6,1c0.7,0.6,1,1.6,1,2.8v5.2h-1.4v-5
	c0-0.9-0.2-1.5-0.7-2c-0.4-0.5-1-0.7-1.8-0.7c-0.8,0-1.4,0.2-1.8,0.7c-0.4,0.5-0.7,1.2-0.7,2.1v4.8H86v-8.8h1.5v1.2
	c0.3-0.4,0.7-0.8,1.2-1C89.1,106.2,89.6,106.1,90.2,106.1z M104.2,110.3c0,0.3,0,0.6,0,0.9h-7c0.1,0.9,0.3,1.5,0.9,2
	c0.5,0.5,1.2,0.7,2,0.7c0.6,0,1.2-0.1,1.6-0.4c0.4-0.3,0.7-0.7,0.9-1.2h1.6c-0.2,0.8-0.7,1.5-1.4,2.1c-0.7,0.5-1.6,0.8-2.6,0.8
	c-0.8,0-1.6-0.2-2.2-0.6c-0.7-0.4-1.2-0.9-1.5-1.6c-0.4-0.7-0.6-1.5-0.6-2.4c0-0.9,0.2-1.7,0.5-2.4c0.4-0.7,0.9-1.2,1.5-1.6
	c0.7-0.4,1.4-0.6,2.3-0.6c0.8,0,1.6,0.2,2.2,0.5c0.6,0.4,1.1,0.9,1.5,1.5C104,108.8,104.2,109.5,104.2,110.3z M102.7,110
	c0-0.6-0.1-1-0.4-1.4c-0.2-0.4-0.6-0.7-1-0.9c-0.4-0.2-0.9-0.3-1.4-0.3c-0.7,0-1.4,0.2-1.9,0.7c-0.5,0.5-0.8,1.1-0.9,2H102.7z
	 M109.2,115.1c-0.7,0-1.3-0.1-1.8-0.3c-0.5-0.2-1-0.6-1.3-1c-0.3-0.4-0.5-0.9-0.5-1.4h1.5c0,0.4,0.2,0.8,0.6,1.1
	c0.4,0.3,0.9,0.4,1.5,0.4c0.6,0,1-0.1,1.3-0.4c0.3-0.2,0.5-0.6,0.5-0.9c0-0.4-0.2-0.7-0.5-0.8c-0.3-0.2-0.9-0.4-1.6-0.6
	c-0.7-0.2-1.2-0.3-1.6-0.5c-0.4-0.2-0.8-0.4-1.1-0.8c-0.3-0.4-0.4-0.8-0.4-1.4c0-0.4,0.1-0.9,0.4-1.2c0.3-0.4,0.6-0.7,1.1-0.9
	c0.5-0.2,1-0.3,1.7-0.3c1,0,1.8,0.2,2.4,0.7c0.6,0.5,0.9,1.2,1,2h-1.5c0-0.5-0.2-0.8-0.6-1.1c-0.3-0.3-0.8-0.4-1.3-0.4
	c-0.5,0-0.9,0.1-1.2,0.3c-0.3,0.2-0.5,0.5-0.5,0.9c0,0.3,0.1,0.5,0.3,0.7c0.2,0.2,0.4,0.3,0.7,0.4c0.3,0.1,0.7,0.2,1.2,0.4
	c0.6,0.2,1.1,0.3,1.5,0.5c0.4,0.2,0.7,0.4,1,0.7c0.3,0.3,0.4,0.8,0.4,1.3c0,0.5-0.1,0.9-0.4,1.3c-0.3,0.4-0.6,0.7-1.1,0.9
	C110.4,115,109.9,115.1,109.2,115.1z"/>
<g>
	<defs>
		<rect id="SVGID_1_" x="57" y="25" width="56" height="56"/>
	</defs>
	<clipPath id="SVGID_00000142874541546873419280000005968808895036879506_">
		<use xlink:href="#SVGID_1_"  style="overflow:visible;"/>
	</clipPath>
	<g style="clip-path:url(#SVGID_00000142874541546873419280000005968808895036879506_);">
		<path class="st2" d="M95.9,31.1H74.1c-1.5,0-2.7,1.2-2.7,2.7v38.3c0,1.5,1.2,2.7,2.7,2.7h21.9c1.5,0,2.7-1.2,2.7-2.7V33.9
			C98.7,32.3,97.4,31.1,95.9,31.1z"/>
		<path class="st3" d="M82.7,32h5.5"/>
		<path class="st4" d="M85,69L85,69"/>
		<line class="st5" x1="72.2" y1="64.8" x2="97.8" y2="64.8"/>
	</g>
</g>
</svg>
