<?xml version="1.0" encoding="utf-8"?>
<!-- Generator: Adobe Illustrator 26.4.1, SVG Export Plug-In . SVG Version: 6.00 Build 0)  -->
<svg version="1.1" id="Layer_1" xmlns="http://www.w3.org/2000/svg" xmlns:xlink="http://www.w3.org/1999/xlink" x="0px" y="0px"
	 viewBox="0 0 170 145" style="enable-background:new 0 0 170 145;" xml:space="preserve">
<style type="text/css">
	.st0{fill:#DB4444;}
	.st1{fill:#FFFFFF;}
	.st2{fill:none;stroke:#FFFFFF;stroke-width:2;stroke-linecap:round;stroke-linejoin:round;}
	.st3{fill:none;stroke:#FFFFFF;stroke-width:2;stroke-linecap:round;}
</style>
<path class="st0" d="M3.5,0h163c1.9,0,3.5,1.6,3.5,3.5v138c0,1.9-1.6,3.5-3.5,3.5H3.5c-1.9,0-3.5-1.6-3.5-3.5V3.5C0,1.6,1.6,0,3.5,0
	z"/>
<path class="st1" d="M38.8,115.1c-0.7,0-1.4-0.1-2-0.4c-0.6-0.3-1-0.6-1.4-1.1c-0.3-0.5-0.5-1-0.5-1.6h1.6c0.1,0.5,0.3,1,0.6,1.3
	c0.4,0.4,0.9,0.5,1.7,0.5c0.7,0,1.2-0.2,1.6-0.5c0.4-0.4,0.6-0.8,0.6-1.3c0-0.4-0.1-0.8-0.4-1c-0.2-0.3-0.5-0.5-0.9-0.6
	c-0.4-0.1-0.8-0.3-1.4-0.4c-0.7-0.2-1.3-0.4-1.8-0.6c-0.4-0.2-0.8-0.5-1.1-0.9c-0.3-0.4-0.5-1-0.5-1.7c0-0.6,0.2-1.1,0.5-1.6
	c0.3-0.5,0.7-0.8,1.3-1.1c0.6-0.3,1.2-0.4,1.9-0.4c1,0,1.9,0.3,2.6,0.8c0.7,0.5,1.1,1.2,1.1,2.1h-1.6c-0.1-0.4-0.3-0.8-0.7-1.1
	c-0.4-0.3-0.9-0.5-1.6-0.5c-0.6,0-1.1,0.2-1.5,0.5c-0.4,0.3-0.6,0.7-0.6,1.3c0,0.4,0.1,0.7,0.3,1c0.2,0.3,0.5,0.5,0.8,0.6
	c0.3,0.1,0.8,0.3,1.4,0.4c0.7,0.2,1.3,0.4,1.8,0.6c0.4,0.2,0.8,0.5,1.2,0.9c0.3,0.4,0.5,1,0.5,1.7c0,0.5-0.1,1.1-0.4,1.5
	c-0.3,0.5-0.7,0.9-1.3,1.2C40.2,115,39.5,115.1,38.8,115.1z M55.2,106.1c0.7,0,1.3,0.1,1.8,0.4c0.5,0.3,1,0.7,1.3,1.3
	c0.3,0.6,0.5,1.3,0.5,2.1v5.2h-1.4v-5c0-0.9-0.2-1.5-0.7-2c-0.4-0.5-1-0.7-1.7-0.7c-0.8,0-1.4,0.2-1.8,0.7c-0.4,0.5-0.7,1.2-0.7,2.1
	v4.8H51v-5c0-0.9-0.2-1.5-0.7-2c-0.4-0.5-1-0.7-1.7-0.7c-0.8,0-1.4,0.2-1.8,0.7c-0.4,0.5-0.7,1.2-0.7,2.1v4.8h-1.5v-8.8h1.5v1.3
	c0.3-0.5,0.7-0.8,1.2-1.1c0.5-0.2,1-0.4,1.6-0.4c0.7,0,1.4,0.2,2,0.5c0.6,0.3,1,0.8,1.3,1.5c0.2-0.6,0.7-1.1,1.2-1.4
	C53.8,106.2,54.5,106.1,55.2,106.1z M60.6,110.6c0-0.9,0.2-1.7,0.5-2.4c0.4-0.7,0.9-1.2,1.5-1.6c0.6-0.4,1.3-0.6,2.1-0.6
	c0.8,0,1.4,0.2,2,0.5s1,0.7,1.3,1.2v-1.6h1.5v8.8H68v-1.6c-0.3,0.5-0.7,0.9-1.3,1.3c-0.6,0.3-1.2,0.5-2,0.5c-0.8,0-1.5-0.2-2.1-0.6
	c-0.6-0.4-1.1-0.9-1.5-1.6C60.7,112.3,60.6,111.5,60.6,110.6z M68,110.6c0-0.7-0.1-1.2-0.4-1.7c-0.3-0.5-0.6-0.9-1.1-1.1
	c-0.4-0.3-0.9-0.4-1.5-0.4s-1,0.1-1.5,0.4c-0.4,0.3-0.8,0.6-1.1,1.1c-0.3,0.5-0.4,1.1-0.4,1.7c0,0.7,0.1,1.3,0.4,1.8
	c0.3,0.5,0.6,0.9,1.1,1.1c0.4,0.3,0.9,0.4,1.5,0.4s1-0.1,1.5-0.4c0.5-0.3,0.8-0.6,1.1-1.1C67.9,111.8,68,111.3,68,110.6z
	 M73.4,107.7c0.3-0.5,0.6-0.9,1.1-1.2c0.5-0.3,1.1-0.4,1.7-0.4v1.5h-0.4c-1.6,0-2.4,0.9-2.4,2.7v4.8h-1.5v-8.8h1.5V107.7z
	 M79.7,107.4v5.2c0,0.4,0.1,0.7,0.3,0.9c0.2,0.2,0.5,0.3,0.9,0.3H82v1.2h-1.3c-0.8,0-1.4-0.2-1.8-0.6c-0.4-0.4-0.6-1-0.6-1.8v-5.2
	h-1.1v-1.2h1.1V104h1.5v2.2H82v1.2H79.7z M97.7,103.8L94.5,115h-1.6l-2.6-9l-2.7,9l-1.6,0l-3.1-11.2h1.6l2.4,9.5l2.7-9.5h1.6
	l2.6,9.4l2.4-9.4H97.7z M98.8,110.6c0-0.9,0.2-1.7,0.5-2.4c0.4-0.7,0.9-1.2,1.5-1.6c0.6-0.4,1.3-0.6,2.1-0.6c0.8,0,1.4,0.2,2,0.5
	c0.6,0.3,1,0.7,1.3,1.2v-1.6h1.5v8.8h-1.5v-1.6c-0.3,0.5-0.7,0.9-1.3,1.3c-0.6,0.3-1.2,0.5-2,0.5c-0.8,0-1.5-0.2-2.1-0.6
	c-0.6-0.4-1.1-0.9-1.5-1.6C99,112.3,98.8,111.5,98.8,110.6z M106.2,110.6c0-0.7-0.1-1.2-0.4-1.7c-0.3-0.5-0.6-0.9-1.1-1.1
	c-0.4-0.3-0.9-0.4-1.5-0.4c-0.5,0-1,0.1-1.5,0.4c-0.4,0.3-0.8,0.6-1.1,1.1c-0.3,0.5-0.4,1.1-0.4,1.7c0,0.7,0.1,1.3,0.4,1.8
	c0.3,0.5,0.6,0.9,1.1,1.1c0.4,0.3,0.9,0.4,1.5,0.4c0.5,0,1-0.1,1.5-0.4c0.5-0.3,0.8-0.6,1.1-1.1
	C106.1,111.8,106.2,111.3,106.2,110.6z M111.9,107.4v5.2c0,0.4,0.1,0.7,0.3,0.9c0.2,0.2,0.5,0.3,0.9,0.3h1.1v1.2h-1.3
	c-0.8,0-1.4-0.2-1.8-0.6c-0.4-0.4-0.6-1-0.6-1.8v-5.2h-1.1v-1.2h1.1V104h1.5v2.2h2.3v1.2H111.9z M115.4,110.6c0-0.9,0.2-1.7,0.5-2.4
	c0.4-0.7,0.9-1.2,1.5-1.6c0.7-0.4,1.4-0.6,2.2-0.6c1.1,0,2,0.3,2.7,0.8c0.7,0.5,1.2,1.2,1.4,2.2h-1.6c-0.1-0.5-0.4-1-0.9-1.3
	c-0.4-0.3-1-0.5-1.6-0.5c-0.8,0-1.5,0.3-2,0.9c-0.5,0.6-0.8,1.4-0.8,2.4c0,1.1,0.3,1.9,0.8,2.4c0.5,0.6,1.2,0.9,2,0.9
	c0.6,0,1.2-0.1,1.6-0.4c0.4-0.3,0.7-0.7,0.9-1.3h1.6c-0.2,0.9-0.7,1.6-1.4,2.2c-0.7,0.5-1.6,0.8-2.6,0.8c-0.8,0-1.6-0.2-2.2-0.6
	c-0.6-0.4-1.1-0.9-1.5-1.6C115.6,112.3,115.4,111.5,115.4,110.6z M130,106.1c0.7,0,1.3,0.1,1.8,0.4c0.5,0.3,0.9,0.7,1.2,1.3
	c0.3,0.6,0.5,1.3,0.5,2.1v5.2h-1.4v-5c0-0.9-0.2-1.5-0.7-2c-0.4-0.5-1-0.7-1.8-0.7c-0.8,0-1.4,0.2-1.8,0.7c-0.4,0.5-0.7,1.2-0.7,2.1
	v4.8h-1.5v-11.8h1.5v4.3c0.3-0.4,0.7-0.8,1.2-1C128.8,106.2,129.4,106.1,130,106.1z"/>
<g>
	<g>
		<path class="st2" d="M92,39H78c-3.9,0-7,3.1-7,7v14c0,3.9,3.1,7,7,7h14c3.9,0,7-3.1,7-7V46C99,42.1,95.9,39,92,39z"/>
		<path class="st2" d="M78,67v7h14v-7"/>
		<path class="st2" d="M78,39v-7h14v7"/>
		<line class="st3" x1="81" y1="48" x2="81" y2="59"/>
		<line class="st3" x1="85" y1="53" x2="85" y2="59"/>
		<line class="st3" x1="89" y1="51" x2="89" y2="59"/>
	</g>
</g>
</svg>
