<?xml version="1.0" encoding="utf-8"?>
<!-- Generator: Adobe Illustrator 26.4.1, SVG Export Plug-In . SVG Version: 6.00 Build 0)  -->
<svg version="1.1" id="Layer_1" xmlns="http://www.w3.org/2000/svg" xmlns:xlink="http://www.w3.org/1999/xlink" x="0px" y="0px"
	 viewBox="0 0 80 80" style="enable-background:new 0 0 80 80;" xml:space="preserve">
<style type="text/css">
	.st0{opacity:0.3;fill:#FFFFFF;}
	.st1{fill:#FFFFFF;}
	.st2{fill:none;stroke:#000000;stroke-width:2;stroke-linecap:round;stroke-linejoin:round;}
	.st3{fill:none;stroke:#000000;stroke-width:2.75;stroke-linecap:round;stroke-linejoin:round;}
</style>
<path class="st0" d="M80,40c0,22.1-17.9,40-40,40S0,62.1,0,40S17.9,0,40,0S80,17.9,80,40z M10.9,40c0,16.1,13,29.1,29.1,29.1
	s29.1-13,29.1-29.1S56.1,10.9,40,10.9S10.9,23.9,10.9,40z"/>
<circle class="st1" cx="40" cy="40" r="29"/>
<path class="st2" d="M40,57.3c9.5,0,17.3-7.7,17.3-17.3c0-9.5-7.7-17.3-17.3-17.3c-9.5,0-17.3,7.7-17.3,17.3
	C22.7,49.5,30.5,57.3,40,57.3z"/>
<path class="st3" d="M45.1,34.5c-0.3-0.6-0.8-1-1.4-1.4c-0.6-0.3-1.2-0.5-1.9-0.5h-3.6c-1,0-1.9,0.4-2.6,1.1
	c-0.7,0.7-1.1,1.6-1.1,2.6s0.4,1.9,1.1,2.6c0.7,0.7,1.6,1.1,2.6,1.1h3.6c1,0,1.9,0.4,2.6,1.1c0.7,0.7,1.1,1.6,1.1,2.6
	s-0.4,1.9-1.1,2.6c-0.7,0.7-1.6,1.1-2.6,1.1h-3.6c-0.7,0-1.3-0.1-1.9-0.5c-0.6-0.3-1.1-0.8-1.4-1.4"/>
<path class="st3" d="M40,28.2v3.9 M40,47.9v3.9"/>
</svg>
